<?xml version="1.0" encoding="UTF-8" standalone="no"?>
<!-- Created with Inkscape (http://www.inkscape.org/) -->

<svg
   xmlns:dc="http://purl.org/dc/elements/1.1/"
   xmlns:cc="http://creativecommons.org/ns#"
   xmlns:rdf="http://www.w3.org/1999/02/22-rdf-syntax-ns#"
   xmlns:svg="http://www.w3.org/2000/svg"
   xmlns="http://www.w3.org/2000/svg"
   xmlns:sodipodi="http://sodipodi.sourceforge.net/DTD/sodipodi-0.dtd"
   xmlns:inkscape="http://www.inkscape.org/namespaces/inkscape"
   width="64px"
   height="64px"
   id="svg2985"
   version="1.1"
   inkscape:version="0.48.5 r10040"
   sodipodi:docname="icon.png">
  <defs
     id="defs2987" />
  <sodipodi:namedview
     id="base"
     pagecolor="#ffffff"
     bordercolor="#666666"
     borderopacity="1.0"
     inkscape:pageopacity="0"
     inkscape:pageshadow="2"
     inkscape:zoom="7.7781746"
     inkscape:cx="18.535088"
     inkscape:cy="25.174216"
     inkscape:current-layer="layer1"
     showgrid="true"
     inkscape:document-units="px"
     inkscape:grid-bbox="true"
     inkscape:window-width="1920"
     inkscape:window-height="1014"
     inkscape:window-x="0"
     inkscape:window-y="27"
     inkscape:window-maximized="1" />
  <metadata
     id="metadata2990">
    <rdf:RDF>
      <cc:Work
         rdf:about="">
        <dc:format>image/svg+xml</dc:format>
        <dc:type
           rdf:resource="http://purl.org/dc/dcmitype/StillImage" />
        <dc:title></dc:title>
      </cc:Work>
    </rdf:RDF>
  </metadata>
  <g
     id="layer1"
     inkscape:label="Layer 1"
     inkscape:groupmode="layer">
    <g
       id="g3823"
       transform="matrix(1.1679718,0,0,1.0784068,1.610879,2.7405503)">
      <path
         transform="matrix(3,0,0,4.53,-58.225724,-157.35246)"
         d="m 35.999999,44.272728 c 0,1.255193 -3.622423,2.272727 -8.090909,2.272727 -4.468486,0 -8.090909,-1.017534 -8.090909,-2.272727 0,-1.255193 3.622423,-2.272727 8.090909,-2.272727 4.468486,0 8.090909,1.017534 8.090909,2.272727 z"
         sodipodi:ry="2.2727273"
         sodipodi:rx="8.090909"
         sodipodi:cy="44.272728"
         sodipodi:cx="27.90909"
         id="path3815"
         style="fill:#000000;fill-opacity:1;fill-rule:evenodd;stroke:#ffffff;stroke-width:1px;stroke-linecap:butt;stroke-linejoin:miter;stroke-opacity:1"
         sodipodi:type="arc" />
      <path
         sodipodi:type="arc"
         style="fill:#000000;fill-opacity:1;fill-rule:evenodd;stroke:#ffffff;stroke-width:1px;stroke-linecap:butt;stroke-linejoin:miter;stroke-opacity:1"
         id="path3817"
         sodipodi:cx="27.90909"
         sodipodi:cy="44.272728"
         sodipodi:rx="8.090909"
         sodipodi:ry="2.2727273"
         d="m 35.999999,44.272728 c 0,1.255193 -3.622423,2.272727 -8.090909,2.272727 -4.468486,0 -8.090909,-1.017534 -8.090909,-2.272727 0,-1.255193 3.622423,-2.272727 8.090909,-2.272727 4.468486,0 8.090909,1.017534 8.090909,2.272727 z"
         transform="matrix(3,0,0,4.53,-57.680269,-167.71609)" />
      <path
         transform="matrix(3,0,0,4.53,-57.680269,-178.07973)"
         d="m 35.999999,44.272728 c 0,1.255193 -3.622423,2.272727 -8.090909,2.272727 -4.468486,0 -8.090909,-1.017534 -8.090909,-2.272727 0,-1.255193 3.622423,-2.272727 8.090909,-2.272727 4.468486,0 8.090909,1.017534 8.090909,2.272727 z"
         sodipodi:ry="2.2727273"
         sodipodi:rx="8.090909"
         sodipodi:cy="44.272728"
         sodipodi:cx="27.90909"
         id="path3819"
         style="fill:#000000;fill-opacity:1;fill-rule:evenodd;stroke:#ffffff;stroke-width:1px;stroke-linecap:butt;stroke-linejoin:miter;stroke-opacity:1"
         sodipodi:type="arc" />
      <path
         sodipodi:type="arc"
         style="fill:#000000;fill-opacity:1;fill-rule:evenodd;stroke:#ffffff;stroke-width:1px;stroke-linecap:butt;stroke-linejoin:miter;stroke-opacity:1"
         id="path3821"
         sodipodi:cx="27.90909"
         sodipodi:cy="44.272728"
         sodipodi:rx="8.090909"
         sodipodi:ry="2.2727273"
         d="m 35.999999,44.272728 c 0,1.255193 -3.622423,2.272727 -8.090909,2.272727 -4.468486,0 -8.090909,-1.017534 -8.090909,-2.272727 0,-1.255193 3.622423,-2.272727 8.090909,-2.272727 4.468486,0 8.090909,1.017534 8.090909,2.272727 z"
         transform="matrix(3,0,0,4.53,-57.680269,-188.44336)" />
    </g>
    <text
       xml:space="preserve"
       style="font-size:24.29739189px;font-style:normal;font-weight:normal;line-height:125%;letter-spacing:0px;word-spacing:0px;fill:#000000;fill-opacity:1;stroke:none;font-family:Sans"
       x="11.044269"
       y="33.513748"
       id="text3829"
       sodipodi:linespacing="125%"
       transform="scale(1.6462671,0.60743483)"><tspan
         sodipodi:role="line"
         id="tspan3831"
         x="11.044269"
         y="33.513748"
         style="fill:#ffffff;fill-opacity:1">€</tspan></text>
  </g>
</svg>
